# xmcd
#
# Track frame offsets: 
#        150
#        12605
#        22548
#        38898
#        51870
#        61854
#        84068
#        100207
#        124367
#        134615
#        143936
#        153889
#        171840
#        182248
#        198348
#
# Disc length: 2922 seconds
#
# Revision: 3
# Processed by: cddbd v1.5.2PL0 Copyright (c) Steve Scherf et al.
# Submitted via: ExactAudioCopy v0.99pb4
#
DISCID=c50b680f
DTITLE=Manuel, André - Allene
DYEAR=2006
DGENRE=Other
TTITLE0=De leu deugt
TTITLE1=Ut woord
TTITLE2=Elvis
TTITLE3=Onder de grond
TTITLE4=Hef ut glas
TTITLE5=Wit
TTITLE6=Jihad Light
TTITLE7=Ut mos groter
TTITLE8=Alle Indiaann
TTITLE9=Wat is hier an de hand
TTITLE10=Vuur
TTITLE11=As ie wilt
TTITLE12=Boorn
TTITLE13=Allene
TTITLE14=Rudolf K.
EXTD=
EXTT0=
EXTT1=
EXTT2=
EXTT3=
EXTT4=
EXTT5=
EXTT6=
EXTT7=
EXTT8=
EXTT9=
EXTT10=
EXTT11=
EXTT12=
EXTT13=
EXTT14=
PLAYORDER=
